<?xml version="1.0" encoding="utf-8"?>
<!-- Generator: Adobe Illustrator 19.0.0, SVG Export Plug-In . SVG Version: 6.00 Build 0)  -->
<svg version="1.1" id="Capa_1" xmlns="http://www.w3.org/2000/svg" xmlns:xlink="http://www.w3.org/1999/xlink" x="0px" y="0px"
	 viewBox="-139 357 512 512" style="enable-background:new -139 357 512 512;" xml:space="preserve">
<style type="text/css">
	.st0{fill:#0055FF;}
</style>
<path class="st0" d="M76.5,570.3c0-19.6-13.3-19.6-13.3-19.6h-7.1H8.3h0v42.1h51.5C68.6,592.8,76.5,589.9,76.5,570.3z"/>
<path class="st0" d="M203.6,592.8c-29.1,0-33.2,29-33.2,29h61.9C232.3,621.8,232.7,592.8,203.6,592.8z"/>
<path class="st0" d="M63.1,621.8H8.3v50.4h48.6c0.8,0,2,0,3.5,0c7.8-0.2,22.6-2.4,22.6-24.5C83,621.6,63.1,621.8,63.1,621.8z"/>
<path class="st0" d="M117,357c-141.2,0-256,114.8-256,256c0,141.1,114.8,256,256,256c141.1,0,256-114.9,256-256
	C373,471.8,258.2,357,117,357z M162.3,528.3H240v23.2h-77.7V528.3z M123,650.1c0,57.5-59.9,55.6-59.9,55.6H8.3H6.7h-41.6V517.2H6.7
	h1.6h54.8c29.8,0,53.3,16.5,53.3,50.2c0,33.7-28.7,35.9-28.7,35.9C125.6,603.3,123,650.1,123,650.1z M268.4,647h-97.7
	c0,35,33.2,32.8,33.2,32.8c31.3,0,30.2-20.3,30.2-20.3h33.2c0,53.8-64.5,50.1-64.5,50.1c-77.4,0-72.4-72-72.4-72
	s-0.1-72.4,72.4-72.4C279.1,565.2,268.4,647,268.4,647z"/>
</svg>
