<?xml version="1.0" encoding="utf-8"?>
<!-- Generator: Adobe Illustrator 19.0.0, SVG Export Plug-In . SVG Version: 6.00 Build 0)  -->
<svg version="1.1" id="Capa_1" xmlns="http://www.w3.org/2000/svg" xmlns:xlink="http://www.w3.org/1999/xlink" x="0px" y="0px"
	 viewBox="-139 357 512 512" style="enable-background:new -139 357 512 512;" xml:space="preserve">
<style type="text/css">
	.st0{fill:#BF0112;}
</style>
<g>
	<path class="st0" d="M117,357c-141.4,0-256,114.6-256,256s114.6,256,256,256s256-114.6,256-256S258.4,357,117,357z M146.5,698
		c-23.7,0-46-12.8-53.6-27.3c0,0-12.7,50.5-15.4,60.3C68,765.4,40,799.9,37.9,802.7c-1.5,2-4.9,1.4-5.2-1.3
		c-0.6-4.4-7.7-47.9,0.7-83.3c4.2-17.8,28.2-119.5,28.2-119.5s-7-14-7-34.7c0-32.5,18.8-56.8,42.3-56.8c19.9,0,29.6,15,29.6,32.9
		c0,20.1-12.8,50-19.3,77.8c-5.5,23.3,11.7,42.2,34.6,42.2c41.6,0,69.5-53.4,69.5-116.6c0-48.1-32.3-84-91.2-84
		c-66.5,0-108,49.6-108,105c0,19.1,5.6,32.6,14.5,43c4,4.8,4.6,6.7,3.2,12.2c-1.1,4-3.5,13.7-4.5,17.6c-1.5,5.6-6,7.5-11,5.5
		c-30.6-12.5-44.9-46.1-44.9-83.8c0-62.3,52.5-137,156.7-137c83.7,0,138.8,60.6,138.8,125.6C264.8,633.8,216.9,698,146.5,698z"/>
</g>
</svg>
